<mxfile host="app.diagrams.net" modified="2023-07-16T14:47:45.605Z" agent="Mozilla/5.0 (X11; Linux x86_64; rv:109.0) Gecko/20100101 Firefox/115.0" etag="MNFFWE90J4kgkwzAgAPg" version="21.6.2" type="github">
  <diagram name="Page-1" id="OdhfeR9D5hqNWg7DuTjQ">
    <mxGraphModel dx="658" dy="339" grid="1" gridSize="10" guides="1" tooltips="1" connect="1" arrows="1" fold="1" page="1" pageScale="1" pageWidth="850" pageHeight="1100" math="0" shadow="0">
      <root>
        <mxCell id="0" />
        <mxCell id="1" parent="0" />
        <mxCell id="1lxfRt-Znmf3i08qzLqG-4" value="" style="endArrow=none;html=1;rounded=0;strokeColor=#CCCCCC;fontColor=#CCCCCC;fontFamily=Rubik;fontSource=https%3A%2F%2Ffonts.googleapis.com%2Fcss%3Ffamily%3DRubik;" edge="1" parent="1">
          <mxGeometry width="50" height="50" relative="1" as="geometry">
            <mxPoint x="160" y="510" as="sourcePoint" />
            <mxPoint x="160" y="320" as="targetPoint" />
          </mxGeometry>
        </mxCell>
        <mxCell id="1lxfRt-Znmf3i08qzLqG-5" value="" style="endArrow=none;html=1;rounded=0;strokeColor=#CCCCCC;fontColor=#CCCCCC;fontFamily=Rubik;fontSource=https%3A%2F%2Ffonts.googleapis.com%2Fcss%3Ffamily%3DRubik;" edge="1" parent="1">
          <mxGeometry width="50" height="50" relative="1" as="geometry">
            <mxPoint x="130" y="480" as="sourcePoint" />
            <mxPoint x="400" y="480" as="targetPoint" />
          </mxGeometry>
        </mxCell>
        <mxCell id="1lxfRt-Znmf3i08qzLqG-6" value="" style="endArrow=classic;html=1;rounded=0;strokeColor=#0000FF;fontColor=#CCCCCC;fontFamily=Rubik;fontSource=https%3A%2F%2Ffonts.googleapis.com%2Fcss%3Ffamily%3DRubik;" edge="1" parent="1">
          <mxGeometry width="50" height="50" relative="1" as="geometry">
            <mxPoint x="160" y="480" as="sourcePoint" />
            <mxPoint x="370" y="410" as="targetPoint" />
          </mxGeometry>
        </mxCell>
        <mxCell id="1lxfRt-Znmf3i08qzLqG-8" value="" style="endArrow=classic;html=1;curved=1;strokeColor=#19D144;fontColor=#19D144;strokeWidth=2;fontFamily=Rubik;fontSource=https%3A%2F%2Ffonts.googleapis.com%2Fcss%3Ffamily%3DRubik;" edge="1" parent="1">
          <mxGeometry width="50" height="50" relative="1" as="geometry">
            <mxPoint x="160" y="480" as="sourcePoint" />
            <mxPoint x="350" y="370" as="targetPoint" />
            <Array as="points">
              <mxPoint x="310" y="480" />
            </Array>
          </mxGeometry>
        </mxCell>
        <mxCell id="1lxfRt-Znmf3i08qzLqG-9" value="Time" style="text;html=1;align=center;verticalAlign=middle;resizable=0;points=[];autosize=1;strokeColor=none;fillColor=none;fontColor=#CCCCCC;fontFamily=Roboto Mono;fontSource=https%3A%2F%2Ffonts.googleapis.com%2Fcss%3Ffamily%3DRoboto%2BMono;" vertex="1" parent="1">
          <mxGeometry x="352" y="478" width="50" height="30" as="geometry" />
        </mxCell>
        <mxCell id="1lxfRt-Znmf3i08qzLqG-10" value="Results" style="text;html=1;align=center;verticalAlign=middle;resizable=0;points=[];autosize=1;strokeColor=none;fillColor=none;fontColor=#999999;fontFamily=Roboto Mono;fontSource=https%3A%2F%2Ffonts.googleapis.com%2Fcss%3Ffamily%3DRoboto%2BMono;" vertex="1" parent="1">
          <mxGeometry x="129" y="292" width="70" height="30" as="geometry" />
        </mxCell>
        <mxCell id="1lxfRt-Znmf3i08qzLqG-11" value="Expected" style="text;html=1;align=center;verticalAlign=middle;resizable=0;points=[];autosize=1;strokeColor=none;fillColor=none;fontFamily=Rubik;fontColor=#0000FF;fontSource=https%3A%2F%2Ffonts.googleapis.com%2Fcss%3Ffamily%3DRubik;" vertex="1" parent="1">
          <mxGeometry x="360" y="390" width="71" height="26" as="geometry" />
        </mxCell>
        <mxCell id="1lxfRt-Znmf3i08qzLqG-12" value="Actual" style="text;html=1;align=center;verticalAlign=middle;resizable=0;points=[];autosize=1;strokeColor=none;fillColor=none;fontFamily=Rubik;fontColor=#19D144;fontSource=https%3A%2F%2Ffonts.googleapis.com%2Fcss%3Ffamily%3DRubik;" vertex="1" parent="1">
          <mxGeometry x="340" y="350" width="54" height="26" as="geometry" />
        </mxCell>
        <mxCell id="1lxfRt-Znmf3i08qzLqG-39" value="" style="endArrow=classic;html=1;rounded=0;dashed=1;endFill=1;fillColor=#fff2cc;strokeColor=#FF33FF;" edge="1" parent="1">
          <mxGeometry width="50" height="50" relative="1" as="geometry">
            <mxPoint x="260" y="508" as="sourcePoint" />
            <mxPoint x="230" y="460" as="targetPoint" />
            <Array as="points" />
          </mxGeometry>
        </mxCell>
        <mxCell id="1lxfRt-Znmf3i08qzLqG-41" value="&lt;div style=&quot;font-size: 10px;&quot;&gt;Valley of&amp;nbsp;&lt;/div&gt;&lt;div style=&quot;font-size: 10px;&quot;&gt;Disappointment&lt;/div&gt;" style="text;html=1;align=center;verticalAlign=middle;resizable=0;points=[];autosize=1;strokeColor=none;fillColor=none;fontColor=#FF33FF;fontFamily=Roboto Mono;fontSize=10;fontSource=https%3A%2F%2Ffonts.googleapis.com%2Fcss%3Ffamily%3DRoboto%2BMono;" vertex="1" parent="1">
          <mxGeometry x="220" y="506" width="110" height="40" as="geometry" />
        </mxCell>
      </root>
    </mxGraphModel>
  </diagram>
</mxfile>
